<svg width="137" height="30" viewBox="0 0 137 30" fill="none" xmlns="http://www.w3.org/2000/svg">
<ellipse cx="14.6734" cy="14.9161" rx="14.6734" ry="14.674" fill="url(#paint0_linear_1478_1873)"/>
<path d="M21.4779 17.6606L13.5393 9.72166L14.6724 8.58851L19.2082 13.1246L20.7213 11.6114L15.7416 6.63145V3.50586H13.602V6.63145L7.86572 12.368L15.8043 20.3069L14.6712 21.4401L10.1354 16.904L8.62227 18.4172L13.602 23.3971V26.5524H15.7416V23.3971L21.4779 17.6606ZM10.8931 12.368L12.0262 11.2348L18.4517 17.6606L17.3186 18.7938L10.8931 12.368Z" fill="#191919"/>
<path d="M35.7822 11.8969H37.7123V13.5073H37.8094C38.2155 12.4522 39.2364 11.666 40.7223 11.666C42.0522 11.666 43.0967 12.2798 43.5203 13.5073H43.6174C44.2736 12.1453 45.4711 11.666 46.6862 11.666C48.634 11.666 50.0227 12.9111 50.0227 15.2318V21.4806H48.0926V15.5971C48.0926 14.504 47.6307 13.3349 46.1625 13.3349C44.7914 13.3349 43.944 14.39 43.944 15.942V21.4806H42.0139V15.5971C42.0139 14.504 41.5902 13.3349 40.0838 13.3349C38.6745 13.3349 37.73 14.4455 37.73 16.1904V21.4806H35.7822V11.8969Z" fill="white"/>
<path d="M52.125 18.7597C52.125 16.8248 53.6697 16.0562 55.5969 15.9217L57.7182 15.7873C58.3155 15.7493 58.645 15.5768 58.645 14.9046C58.645 13.87 57.7771 13.2182 56.5031 13.2182C55.1526 13.2182 54.4582 13.908 54.2258 14.7526L52.3722 14.5217C52.584 12.9493 54.0904 11.6458 56.5001 11.6458C58.9098 11.6458 60.6281 12.9288 60.6281 15.0391V21.4779H58.6421V19.9054H58.545C58.2361 20.8436 57.118 21.7263 55.4586 21.7263C53.5285 21.7263 52.1221 20.5952 52.1221 18.7568L52.125 18.7597ZM55.947 20.2152C57.4328 20.2152 58.6303 19.1221 58.6303 17.4942V16.9564C58.5332 17.0148 58.3214 17.0704 57.9536 17.1084L56.0058 17.2603C54.9819 17.3363 54.1346 17.7192 54.1346 18.7159C54.1346 19.6161 54.8495 20.2123 55.947 20.2123V20.2152Z" fill="white"/>
<path d="M63.144 11.8969H65.0918V13.4489H65.1889C65.6508 12.4142 66.7336 11.666 68.2577 11.666C70.3231 11.666 71.7678 13.0076 71.7678 15.2873V21.4777H69.82V15.7462C69.82 14.5391 69.2404 13.3495 67.6192 13.3495C66.154 13.3495 65.0918 14.4426 65.0918 16.2635V21.4777H63.144V11.8969Z" fill="white"/>
<path d="M75.0278 18.7595V13.4694H73.3302L73.3096 11.8969H74.816C74.9513 11.8969 75.0102 11.8209 75.0102 11.6865V9.31029L76.9786 9.09985V11.8969H79.9679V13.4694H76.9962V18.6455C76.9962 19.3353 77.2669 19.8351 78.1731 19.8351H80.1415V21.4835H77.8465C76.0135 21.4835 75.0308 20.5073 75.0308 18.7624L75.0278 18.7595Z" fill="white"/>
<path d="M82.1875 11.8971H84.097V13.5455H84.1941C84.4648 12.6833 85.1974 11.8386 86.6244 11.8386H87.9955V13.601H86.5097C85.0621 13.601 84.1353 14.4252 84.1353 16.2081V21.4603L82.1875 21.4807V11.8971Z" fill="white"/>
<path d="M89.2271 18.7597C89.2271 16.8248 90.7717 16.0562 92.6989 15.9217L94.8203 15.7873C95.4176 15.7493 95.7471 15.5768 95.7471 14.9046C95.7471 13.87 94.8791 13.2182 93.6051 13.2182C92.2546 13.2182 91.5603 13.908 91.3278 14.7526L89.4742 14.5217C89.6861 12.9493 91.1925 11.6458 93.6022 11.6458C96.0119 11.6458 97.7302 12.9288 97.7302 15.0391V21.4779H95.7441V19.9054H95.6471C95.3381 20.8436 94.2201 21.7263 92.5606 21.7263C90.6305 21.7263 89.2241 20.5952 89.2241 18.7568L89.2271 18.7597ZM93.049 20.2152C94.5349 20.2152 95.7324 19.1221 95.7324 17.4942V16.9564C95.6353 17.0148 95.4234 17.0704 95.0557 17.1084L93.1079 17.2603C92.084 17.3363 91.2366 17.7192 91.2366 18.7159C91.2366 19.6161 91.9516 20.2123 93.049 20.2123V20.2152Z" fill="white"/>
<path d="M100.264 16.6699V8.35181H102.368V16.5939C102.368 18.6837 103.604 19.8148 105.572 19.8148C107.54 19.8148 108.776 18.6837 108.776 16.5939V8.35181H110.859V16.6699C110.859 19.8908 108.603 21.6737 105.572 21.6737C102.541 21.6737 100.267 19.8908 100.267 16.6699H100.264Z" fill="white"/>
<path d="M113.057 18.0318L114.987 17.573C115.296 19.011 116.608 20.0076 118.497 20.0076C120.386 20.0076 121.486 18.9905 121.486 17.6899C121.486 16.4623 120.598 16.0619 119.459 15.8895L116.623 15.4481C114.463 15.1032 113.38 13.7237 113.38 11.9993C113.38 9.6991 115.425 8.10913 118.32 8.10913C120.848 8.10913 122.701 9.29869 123.184 11.3475L121.274 11.7684C120.868 10.4064 119.691 9.77509 118.264 9.77509C116.584 9.77509 115.428 10.6753 115.428 11.9028C115.428 12.7651 115.969 13.4548 117.126 13.6477L119.865 14.0686C121.969 14.393 123.552 15.3721 123.552 17.4999C123.552 19.9521 121.507 21.697 118.362 21.697C115.41 21.697 113.442 20.183 113.057 18.0348V18.0318Z" fill="white"/>
<path d="M125.962 8.35181H130.419C134.183 8.35181 136.998 10.728 136.998 14.8871C136.998 19.0461 134.162 21.4808 130.419 21.4808H125.962V8.35181ZM130.378 19.6803C132.888 19.6803 134.933 18.0904 134.933 14.89C134.933 11.6896 132.906 10.1376 130.399 10.1376H127.986V19.6833H130.378V19.6803Z" fill="white"/>
<defs>
<linearGradient id="paint0_linear_1478_1873" x1="22.6432" y1="2.49793" x2="-1.65087" y2="9.3542" gradientUnits="userSpaceOnUse">
<stop offset="0.372396" stop-color="#FF97D6"/>
<stop offset="0.802083" stop-color="#F8B994"/>
</linearGradient>
</defs>
</svg>
