<svg width="137" height="30" viewBox="0 0 137 30" fill="none" xmlns="http://www.w3.org/2000/svg">
<ellipse cx="14.6734" cy="14.9161" rx="14.6734" ry="14.674" fill="url(#paint0_linear_1478_1290)"/>
<path d="M21.4779 17.6606L13.5393 9.72166L14.6724 8.58851L19.2082 13.1246L20.7213 11.6114L15.7416 6.63145V3.50586H13.602V6.63145L7.86572 12.368L15.8043 20.3069L14.6712 21.4401L10.1354 16.904L8.62227 18.4172L13.602 23.3971V26.5524H15.7416V23.3971L21.4779 17.6606ZM10.8931 12.368L12.0262 11.2348L18.4517 17.6606L17.3186 18.7938L10.8931 12.368Z" fill="#191919"/>
<path d="M35.7827 11.8969H37.7128V13.5073H37.8099C38.216 12.4522 39.2369 11.666 40.7228 11.666C42.0527 11.666 43.0972 12.2798 43.5208 13.5073H43.6179C44.2741 12.1453 45.4715 11.666 46.6867 11.666C48.6345 11.666 50.0232 12.9111 50.0232 15.2318V21.4806H48.0931V15.5971C48.0931 14.504 47.6312 13.3349 46.163 13.3349C44.7919 13.3349 43.9445 14.39 43.9445 15.942V21.4806H42.0144V15.5971C42.0144 14.504 41.5907 13.3349 40.0843 13.3349C38.6749 13.3349 37.7305 14.4455 37.7305 16.1904V21.4806H35.7827V11.8969Z" fill="black"/>
<path d="M52.1255 18.7595C52.1255 16.8246 53.6702 16.0559 55.5974 15.9215L57.7187 15.787C58.316 15.749 58.6455 15.5766 58.6455 14.9044C58.6455 13.8697 57.7776 13.2179 56.5036 13.2179C55.1531 13.2179 54.4587 13.9077 54.2263 14.7524L52.3727 14.5215C52.5845 12.949 54.0909 11.6455 56.5006 11.6455C58.9103 11.6455 60.6286 12.9286 60.6286 15.0388V21.4776H58.6426V19.9052H58.5455C58.2366 20.8434 57.1185 21.726 55.4591 21.726C53.529 21.726 52.1226 20.5949 52.1226 18.7565L52.1255 18.7595ZM55.9475 20.215C57.4333 20.215 58.6308 19.1219 58.6308 17.4939V16.9561C58.5337 17.0146 58.3219 17.0701 57.9541 17.1081L56.0063 17.2601C54.9824 17.3361 54.1351 17.719 54.1351 18.7156C54.1351 19.6158 54.85 20.2121 55.9475 20.2121V20.215Z" fill="black"/>
<path d="M63.1443 11.8969H65.0921V13.4489H65.1892C65.6511 12.4142 66.7338 11.666 68.2579 11.666C70.3234 11.666 71.768 13.0076 71.768 15.2873V21.4777H69.8203V15.7462C69.8203 14.5391 69.2406 13.3495 67.6195 13.3495C66.1542 13.3495 65.0921 14.4426 65.0921 16.2635V21.4777H63.1443V11.8969Z" fill="black"/>
<path d="M75.0278 18.7593V13.4691H73.3302L73.3096 11.8967H74.816C74.9513 11.8967 75.0102 11.8207 75.0102 11.6862V9.31005L76.9786 9.09961V11.8967H79.9679V13.4691H76.9962V18.6453C76.9962 19.335 77.2669 19.8348 78.1731 19.8348H80.1415V21.4833H77.8465C76.0135 21.4833 75.0308 20.5071 75.0308 18.7622L75.0278 18.7593Z" fill="black"/>
<path d="M82.1875 11.8968H84.097V13.5453H84.1941C84.4648 12.6831 85.1974 11.8384 86.6244 11.8384H87.9955V13.6008H86.5097C85.0621 13.6008 84.1353 14.425 84.1353 16.2079V21.46L82.1875 21.4805V11.8968Z" fill="black"/>
<path d="M89.2273 18.7595C89.2273 16.8246 90.772 16.0559 92.6992 15.9215L94.8205 15.787C95.4178 15.749 95.7473 15.5766 95.7473 14.9044C95.7473 13.8697 94.8794 13.2179 93.6054 13.2179C92.2549 13.2179 91.5605 13.9077 91.3281 14.7524L89.4745 14.5215C89.6863 12.949 91.1927 11.6455 93.6024 11.6455C96.0121 11.6455 97.7304 12.9286 97.7304 15.0388V21.4776H95.7444V19.9052H95.6473C95.3384 20.8434 94.2203 21.726 92.5609 21.726C90.6308 21.726 89.2244 20.5949 89.2244 18.7565L89.2273 18.7595ZM93.0493 20.215C94.5351 20.215 95.7326 19.1219 95.7326 17.4939V16.9561C95.6355 17.0146 95.4237 17.0701 95.0559 17.1081L93.1081 17.2601C92.0842 17.3361 91.2369 17.719 91.2369 18.7156C91.2369 19.6158 91.9518 20.2121 93.0493 20.2121V20.215Z" fill="black"/>
<path d="M100.264 16.6697V8.35156H102.368V16.5937C102.368 18.6834 103.604 19.8146 105.572 19.8146C107.541 19.8146 108.776 18.6834 108.776 16.5937V8.35156H110.859V16.6697C110.859 19.8905 108.603 21.6734 105.572 21.6734C102.542 21.6734 100.267 19.8905 100.267 16.6697H100.264Z" fill="black"/>
<path d="M113.057 18.0316L114.987 17.5727C115.296 19.0107 116.608 20.0074 118.497 20.0074C120.386 20.0074 121.486 18.9903 121.486 17.6896C121.486 16.4621 120.598 16.0617 119.459 15.8892L116.623 15.4479C114.463 15.103 113.381 13.7235 113.381 11.9991C113.381 9.69886 115.425 8.10889 118.321 8.10889C120.848 8.10889 122.702 9.29844 123.184 11.3473L121.275 11.7682C120.869 10.4062 119.692 9.77485 118.265 9.77485C116.585 9.77485 115.428 10.6751 115.428 11.9026C115.428 12.7648 115.97 13.4546 117.126 13.6475L119.865 14.0684C121.969 14.3928 123.552 15.3719 123.552 17.4997C123.552 19.9518 121.507 21.6967 118.362 21.6967C115.411 21.6967 113.442 20.1827 113.057 18.0345V18.0316Z" fill="black"/>
<path d="M125.962 8.35156H130.42C134.183 8.35156 136.999 10.7278 136.999 14.8868C136.999 19.0459 134.162 21.4805 130.42 21.4805H125.962V8.35156ZM130.379 19.6801C132.888 19.6801 134.933 18.0901 134.933 14.8897C134.933 11.6893 132.906 10.1374 130.399 10.1374H127.987V19.683H130.379V19.6801Z" fill="black"/>
<defs>
<linearGradient id="paint0_linear_1478_1290" x1="22.6432" y1="2.49793" x2="-1.65087" y2="9.3542" gradientUnits="userSpaceOnUse">
<stop offset="0.372396" stop-color="#FF97D6"/>
<stop offset="0.802083" stop-color="#F8B994"/>
</linearGradient>
</defs>
</svg>
